<?xml version="1.0" encoding="UTF-8"?>
<svg width="213px" height="37px" viewBox="0 0 213 37" version="1.1" xmlns="http://www.w3.org/2000/svg" xmlns:xlink="http://www.w3.org/1999/xlink">
    <!-- Generator: Sketch 57 (83077) - https://sketch.com -->
    <title>Group 7</title>
    <desc>Created with Sketch.</desc>
    <g id="Page-1" stroke="none" stroke-width="1" fill="none" fill-rule="evenodd">
        <g id="Artboard" transform="translate(-293.000000, -473.000000)">
            <g id="Group-7" transform="translate(294.000000, 473.000000)">
                <path d="M56.18,26.388 L56.144,26.388 C55.244,26.352 54.308,26.316 53.444,26.316 C52.544,26.316 51.716,26.352 50.888,26.388 C50.348,26.424 49.88,26.028 49.88,25.452 C49.88,24.948 50.204,24.48 50.852,24.48 L50.888,24.48 C51.32,24.48 51.392,24.516 51.932,24.516 C52.292,24.516 52.544,24.3 52.544,23.904 C52.544,22.86 52.58,21.42 52.58,19.98 C52.58,18 52.544,16.056 52.508,15.372 C52.364,12.6 50.744,11.484 48.944,11.484 C46.712,11.484 44.228,13.248 44.12,15.696 C44.084,16.488 44.048,18.216 44.048,20.052 C44.048,21.384 44.084,22.752 44.084,23.904 C44.084,24.3 44.3,24.516 44.732,24.516 C45.272,24.516 45.2,24.516 45.704,24.48 C46.352,24.444 46.712,24.912 46.712,25.416 C46.712,25.884 46.388,26.388 45.74,26.388 L45.704,26.388 C44.804,26.352 43.868,26.316 43.004,26.316 C42.104,26.316 41.276,26.352 40.448,26.388 C39.8,26.424 39.44,25.956 39.44,25.452 C39.44,24.984 39.764,24.48 40.412,24.48 L40.448,24.48 C40.88,24.48 40.988,24.516 41.528,24.516 C41.888,24.516 42.14,24.264 42.14,23.868 C42.14,22.644 42.176,21.204 42.176,19.8 C42.176,17.856 42.14,16.056 42.104,15.372 C41.96,12.6 40.34,11.484 38.576,11.484 C36.344,11.484 33.896,13.284 33.788,15.948 C33.788,16.524 33.752,17.82 33.752,19.296 C33.752,20.808 33.788,22.464 33.788,23.868 C33.788,24.264 34.004,24.516 34.436,24.516 C34.976,24.516 34.868,24.516 35.372,24.48 L35.408,24.48 C36.056,24.48 36.38,24.948 36.38,25.416 C36.38,25.92 36.056,26.388 35.408,26.388 L35.372,26.388 C34.472,26.352 33.536,26.316 32.636,26.316 C31.772,26.316 30.908,26.352 30.08,26.388 C29.18,26.424 29.072,25.704 29.036,25.452 C29.072,24.948 29.396,24.48 30.044,24.48 L30.08,24.48 C30.512,24.48 30.62,24.516 31.16,24.516 C31.52,24.516 31.772,24.3 31.772,23.904 C31.808,21.492 31.844,18.792 31.844,16.272 L31.844,13.572 C31.844,12.672 31.556,11.952 30.728,11.952 C30.404,11.952 30.404,11.988 29.936,11.988 C29.324,11.988 29,11.484 29,10.98 C29,10.476 29.324,9.972 29.972,9.972 C30.296,9.972 30.656,9.936 31.016,9.936 C33.572,9.936 33.824,11.7 33.86,11.808 C33.896,11.916 33.896,11.952 33.932,11.952 L34.004,11.88 C35.192,10.404 37.028,9.648 38.828,9.648 C40.844,9.648 42.824,10.656 43.58,12.78 C44.948,10.656 47.108,9.612 49.16,9.612 C51.896,9.612 54.452,11.484 54.56,15.012 C54.596,16.524 54.632,21.096 54.632,23.904 C54.632,24.264 54.812,24.516 55.208,24.516 C55.748,24.516 55.64,24.48 56.144,24.48 L56.18,24.48 C56.828,24.48 57.152,24.948 57.152,25.416 C57.152,25.92 56.828,26.388 56.18,26.388 Z M61.18,1.692 C61.18,1.98 61,3.42 59.38,3.42 C59.2,3.42 57.688,3.42 57.688,1.692 C57.688,0.54 58.696,2.84217094e-14 59.416,2.84217094e-14 C60.532,2.84217094e-14 61.18,0.828 61.18,1.692 Z M63.052,26.4242979 L63.016,26.4242979 C62.044,26.388 60.964,26.352 59.956,26.352 C58.948,26.352 57.94,26.388 57.076,26.4242979 C56.932,26.4242979 55.96,26.46 55.96,25.416 C55.96,24.912 56.32,24.408 57.04,24.408 L57.076,24.408 C57.544,24.408 57.76,24.444 58.372,24.444 C58.804,24.444 59.02,24.192 59.02,23.724 C59.056,20.304 59.092,16.776 59.092,13.644 C59.092,12.6 58.732,12.024 57.868,11.988 C57.58,11.988 57.4,12.024 57.112,12.024 L57.04,12.024 C56.392,12.024 56.068,11.52 56.068,11.052 C56.068,10.512 56.428,9.972 57.112,9.972 C57.796,9.972 57.688,10.008 58.516,10.008 C60.496,10.008 61.18,11.448 61.18,12.96 L61.18,13.068 C61.144,15.588 61.108,18.324 61.108,20.952 L61.108,23.76 C61.108,24.12 61.324,24.444 61.756,24.444 C62.332,24.444 62.476,24.444 63.016,24.408 C63.16,24.408 64.132,24.372 64.132,25.416 C64.132,25.92 63.772,26.4242979 63.052,26.4242979 Z M79.068,23.292 C79.068,24.12 76.548,26.856 72.012,26.856 C67.44,26.856 63.876,23.436 63.876,18.36 C63.876,13.104 67.656,9.648 71.904,9.648 C76.836,9.648 78.996,13.5 78.996,15.552 C78.996,16.884 78.204,17.892 76.368,17.964 C75.54,18 74.316,18 72.984,18 C70.284,18 67.224,17.964 66.432,17.964 C66.072,17.964 66,18.108 66,18.612 C66,22.536 68.592,24.948 72.048,24.948 C74.676,24.948 76.152,23.832 77.268,22.572 C77.484,22.356 77.736,22.248 77.988,22.248 C78.528,22.248 79.068,22.716 79.068,23.292 Z M76.872,15.192 C76.872,14.148 75.612,11.448 71.94,11.448 C68.484,11.448 66.288,14.544 66.288,15.876 C66.288,16.236 66.612,16.236 70.788,16.236 C72.66,16.236 74.676,16.236 75.684,16.2 C76.548,16.164 76.872,15.768 76.872,15.192 Z M95.408,26.388 L95.372,26.388 C94.436,26.352 93.572,26.316 92.78,26.316 C91.988,26.316 91.196,26.352 90.368,26.388 L90.296,26.388 C89.648,26.388 89.324,25.92 89.324,25.452 C89.324,24.516 90.044,24.516 90.296,24.516 C91.232,24.516 91.232,24.3 91.232,24.264 C91.232,24.228 91.196,24.156 91.16,24.12 C89.252,22.248 86.3,19.512 85.184,18.36 C84.824,17.964 84.464,17.928 84.104,17.928 C83.564,17.928 83.528,18.252 83.528,20.124 C83.528,20.988 83.528,22.14 83.564,23.868 C83.564,24.228 83.744,24.48 84.176,24.48 C84.716,24.48 84.68,24.48 85.184,24.444 L85.22,24.444 C85.904,24.444 86.264,24.912 86.264,25.416 C86.264,25.92 85.904,26.388 85.22,26.388 L85.184,26.388 C84.248,26.352 83.312,26.316 82.376,26.316 C81.476,26.316 80.612,26.352 79.784,26.388 C78.956,26.424 78.704,25.848 78.704,25.452 C78.704,24.948 79.064,24.444 79.748,24.444 L79.784,24.444 C80.216,24.444 80.288,24.48 80.864,24.48 C81.224,24.48 81.476,24.264 81.476,23.868 C81.548,20.088 81.584,15.228 81.584,10.836 C81.584,8.316 81.548,5.904 81.548,3.96 C81.548,2.952 81.26,2.556 80.36,2.52 L79.532,2.52 C78.884,2.52 78.524,2.016 78.524,1.512 C78.524,0.576 79.172,0.468 80.432,0.468 C83.384,0.468 83.636,2.376 83.636,3.168 C83.636,7.812 83.564,15.444 83.564,15.444 C83.564,15.84 83.816,16.02 84.176,16.02 C84.572,16.02 84.716,15.984 90.404,12.06 C90.512,11.988 90.548,11.916 90.548,11.88 C90.548,11.808 90.476,11.772 90.296,11.772 C89.648,11.772 88.784,11.772 88.784,10.908 C88.784,10.44 89.108,9.972 89.756,9.972 L89.828,9.972 C90.728,10.008 91.52,10.008 92.348,10.008 C93.14,10.008 94.004,10.008 94.94,9.972 C95.3,9.936 95.984,10.044 95.984,10.908 C95.984,11.376 95.624,11.844 94.976,11.844 L94.94,11.844 C94.436,11.844 94.724,11.808 94.22,11.808 C93.932,11.808 93.572,11.952 93.32,12.132 C91.196,13.572 88.424,15.444 86.66,16.596 C86.444,16.74 86.372,16.848 86.372,16.956 C86.372,17.208 87.308,18.072 93.824,24.048 C94.184,24.408 94.508,24.48 94.868,24.48 C95.012,24.48 95.192,24.444 95.408,24.444 C95.984,24.408 96.416,24.768 96.416,25.38 C96.416,25.884 96.092,26.388 95.408,26.388 Z M104.26,26.856 C99.472,26.856 95.944,23.4 95.944,18.216 C95.944,13.212 99.472,9.612 104.26,9.612 C109.048,9.612 112.648,13.212 112.648,18.216 C112.648,23.4 109.048,26.856 104.26,26.856 Z M104.26,24.948 C107.716,24.948 110.524,22.248 110.524,18.216 C110.524,14.148 107.716,11.484 104.26,11.484 C100.804,11.484 98.032,14.148 98.032,18.216 C98.032,22.248 100.804,24.948 104.26,24.948 Z M118.116,24.912 C118.116,25.848 117.36,26.712 116.28,26.712 C115.056,26.712 114.552,25.884 114.552,24.948 C114.552,23.76 115.56,23.22 116.316,23.22 C117.612,23.22 118.116,24.3 118.116,24.912 Z M138.344,24.408 L138.38,24.408 C138.992,24.408 139.316,24.912 139.316,25.452 C139.316,26.46 138.344,26.568 137.876,26.568 C136.364,26.568 134.852,25.92 134.6,24.012 C134.564,23.796 134.528,23.652 134.42,23.652 C134.384,23.652 134.348,23.688 134.276,23.76 C132.764,25.812 130.424,26.784 128.264,26.784 C123.584,26.784 120.092,23.4 120.092,18.18 C120.092,13.14 123.584,9.648 128.264,9.648 C130.568,9.648 132.728,10.656 133.952,12.24 C134.132,12.492 134.24,12.672 134.312,12.672 C134.384,12.672 134.42,12.492 134.42,12.024 C134.42,10.188 134.456,7.632 134.456,5.544 C134.456,3.096 134.456,2.484 133.016,2.484 C132.872,2.484 132.8,2.484 132.44,2.52 L132.368,2.52 C131.684,2.52 131.36,2.052 131.36,1.584 C131.36,1.044 131.756,0.504 132.476,0.504 C132.836,0.504 133.34,0.468 133.664,0.468 C135.932,0.468 136.544,1.908 136.544,3.456 L136.544,3.6 C136.508,6.624 136.472,12.456 136.472,17.388 L136.472,22.284 C136.472,24.012 137.084,24.444 137.876,24.444 C138.056,24.444 138.2,24.408 138.344,24.408 Z M128.336,24.804 C131.72,24.804 134.42,22.176 134.42,18.18 C134.42,14.148 131.756,11.52 128.336,11.52 C124.7,11.52 122.216,14.04 122.216,18.18 C122.216,22.284 124.736,24.804 128.336,24.804 Z M154.504,23.292 C154.504,24.12 151.984,26.856 147.448,26.856 C142.876,26.856 139.312,23.436 139.312,18.36 C139.312,13.104 143.092,9.648 147.34,9.648 C152.272,9.648 154.432,13.5 154.432,15.552 C154.432,16.884 153.64,17.892 151.804,17.964 C150.976,18 149.752,18 148.42,18 C145.72,18 142.66,17.964 141.868,17.964 C141.508,17.964 141.436,18.108 141.436,18.612 C141.436,22.536 144.028,24.948 147.484,24.948 C150.112,24.948 151.588,23.832 152.704,22.572 C152.92,22.356 153.172,22.248 153.424,22.248 C153.964,22.248 154.504,22.716 154.504,23.292 Z M152.308,15.192 C152.308,14.148 151.048,11.448 147.376,11.448 C143.92,11.448 141.724,14.544 141.724,15.876 C141.724,16.236 142.048,16.236 146.224,16.236 C148.096,16.236 150.112,16.236 151.12,16.2 C151.984,16.164 152.308,15.768 152.308,15.192 Z M166.056,10.512 L166.056,10.548 C166.02,11.304 166.02,11.808 166.02,12.348 C166.02,12.852 166.02,13.392 166.056,14.22 L166.056,14.292 C166.056,15.048 165.3,15.156 165.156,15.156 C164.652,15.156 164.148,14.868 164.148,14.22 C164.148,11.34 160.944,11.34 160.728,11.34 C158.856,11.34 157.812,12.456 157.812,13.644 C157.812,14.508 158.388,15.444 159.576,16.02 C160.584,16.488 162.312,17.208 163.428,17.784 C165.66,18.936 166.632,20.628 166.632,22.248 C166.632,24.228 165.048,26.892 160.944,26.892 C159.396,26.892 158.1,26.352 157.344,25.704 C157.272,25.632 157.164,25.56 157.092,25.56 C157.02,25.56 156.984,25.632 156.984,25.74 C156.984,26.64 156.552,26.748 156.12,26.748 C155.652,26.748 155.184,26.46 155.184,25.884 L155.184,25.812 C155.22,25.02 155.256,24.48 155.256,23.94 C155.256,23.4 155.22,22.86 155.184,21.996 L155.184,21.924 C155.184,21.312 155.688,20.988 156.192,20.988 C156.696,20.988 157.164,21.312 157.164,21.96 C157.164,22.212 157.092,22.392 157.092,22.644 C157.092,23.832 158.892,25.02 160.944,25.02 C162.78,25.02 164.544,23.976 164.544,22.248 C164.544,20.34 162.96,19.476 158.784,17.748 C156.804,16.92 155.868,15.336 155.868,13.752 C155.868,11.664 157.56,9.612 160.764,9.612 C162.06,9.612 163.392,10.152 163.932,10.584 C164.004,10.656 164.076,10.656 164.148,10.656 C164.328,10.656 164.292,10.332 164.328,10.224 C164.436,9.828 164.796,9.648 165.156,9.648 C165.624,9.648 166.056,9.936 166.056,10.512 Z M171.884,1.692 C171.884,1.98 171.704,3.42 170.084,3.42 C169.904,3.42 168.392,3.42 168.392,1.692 C168.392,0.54 169.4,2.84217094e-14 170.12,2.84217094e-14 C171.236,2.84217094e-14 171.884,0.828 171.884,1.692 Z M173.756,26.4242979 L173.72,26.4242979 C172.748,26.388 171.668,26.352 170.66,26.352 C169.652,26.352 168.644,26.388 167.78,26.4242979 C167.636,26.4242979 166.664,26.46 166.664,25.416 C166.664,24.912 167.024,24.408 167.744,24.408 L167.78,24.408 C168.248,24.408 168.464,24.444 169.076,24.444 C169.508,24.444 169.724,24.192 169.724,23.724 C169.76,20.304 169.796,16.776 169.796,13.644 C169.796,12.6 169.436,12.024 168.572,11.988 C168.284,11.988 168.104,12.024 167.816,12.024 L167.744,12.024 C167.096,12.024 166.772,11.52 166.772,11.052 C166.772,10.512 167.132,9.972 167.816,9.972 C168.5,9.972 168.392,10.008 169.22,10.008 C171.2,10.008 171.884,11.448 171.884,12.96 L171.884,13.068 C171.848,15.588 171.812,18.324 171.812,20.952 L171.812,23.76 C171.812,24.12 172.028,24.444 172.46,24.444 C173.036,24.444 173.18,24.444 173.72,24.408 C173.864,24.408 174.836,24.372 174.836,25.416 C174.836,25.92 174.476,26.4242979 173.756,26.4242979 Z M188.764,27.36 L188.764,24.048 C188.764,23.724 188.764,23.616 188.728,23.616 C188.692,23.616 188.584,23.724 188.44,23.94 C187,25.776 184.732,26.784 182.572,26.784 C177.892,26.784 174.4,23.364 174.4,18.216 C174.4,13.14 177.928,9.648 182.608,9.648 C184.876,9.648 187.324,10.728 188.548,12.42 C188.764,12.708 188.872,12.924 188.908,12.924 C188.944,12.924 188.98,12.816 189.016,12.528 C189.124,11.16 190.24,9.972 192.076,9.972 C193.084,9.972 193.588,10.224 193.588,11.052 C193.588,11.556 193.3,12.06 192.724,12.06 L192.076,12.06 C191.356,12.096 190.816,12.636 190.78,14.076 C190.744,14.832 190.744,16.272 190.744,17.892 C190.744,21.204 190.78,25.416 190.78,27.324 C190.744,33.3 186.64,36.036 182.284,36.036 C179.512,36.036 175.408,34.416 175.408,32.94 C175.408,32.292 175.984,31.752 176.596,31.752 C176.848,31.752 177.1,31.86 177.316,32.076 C178.432,33.264 180.412,34.02 182.428,34.02 C185.56,34.02 188.728,32.184 188.764,27.36 Z M182.644,24.84 C186.028,24.84 188.764,22.248 188.764,18.216 C188.764,14.112 186.208,11.556 182.68,11.556 C179.044,11.556 176.524,14.112 176.524,18.216 C176.524,22.32 179.044,24.84 182.644,24.84 Z M210.36,26.388 L210.324,26.388 C209.388,26.352 208.452,26.316 207.516,26.316 C206.616,26.316 205.752,26.352 204.924,26.388 C204.096,26.424 203.844,25.848 203.844,25.452 C203.844,24.948 204.204,24.444 204.888,24.444 L204.924,24.444 C205.356,24.444 205.428,24.48 206.004,24.48 C206.364,24.48 206.544,24.228 206.544,23.832 C206.58,22.176 206.58,20.124 206.58,18.432 C206.58,17.208 206.58,16.2 206.544,15.696 C206.364,12.708 204.456,11.484 202.44,11.484 C199.92,11.484 197.148,13.392 197.04,16.236 C197.04,16.92 197.004,18 197.004,19.296 C197.004,20.628 197.04,22.176 197.04,23.868 C197.04,24.264 197.256,24.48 197.688,24.48 C198.228,24.48 198.156,24.48 198.66,24.444 C199.308,24.408 199.74,24.84 199.74,25.416 C199.74,25.884 199.38,26.388 198.696,26.388 L198.66,26.388 C197.724,26.352 196.752,26.316 195.852,26.316 C194.952,26.316 194.052,26.352 193.224,26.388 C192.396,26.424 192.144,25.848 192.144,25.452 C192.144,24.948 192.504,24.444 193.188,24.444 L193.224,24.444 C193.656,24.444 193.764,24.48 194.34,24.48 C194.7,24.48 194.952,24.264 194.952,23.868 C194.988,21.6 195.024,19.728 195.024,17.856 C195.024,16.524 194.988,15.156 194.988,13.608 C194.988,12.672 194.664,12.024 193.8,11.988 C193.476,11.988 193.512,11.988 193.044,12.024 C193.008,12.024 193.008,12.024 192.972,12.024 C192.324,12.024 192,11.52 192,11.016 C192,10.512 192.36,9.972 193.044,9.972 L194.088,9.972 C195.528,9.972 196.752,10.656 196.932,11.988 C196.968,12.096 197.004,12.168 197.112,12.168 C197.148,12.168 197.22,12.132 197.292,12.06 C198.552,10.44 200.604,9.612 202.62,9.612 C205.608,9.612 208.488,11.448 208.632,15.372 C208.668,16.56 208.704,19.512 208.704,22.104 C208.704,22.716 208.704,23.292 208.704,23.832 C208.704,24.228 208.884,24.48 209.28,24.48 C209.82,24.48 209.82,24.444 210.324,24.444 L210.36,24.444 C211.044,24.444 211.404,24.912 211.404,25.416 C211.404,25.92 211.044,26.388 210.36,26.388 Z" id="mieko.design" fill="#000000" fill-rule="nonzero"></path>
                <g id="Group-6" transform="translate(0.000000, 1.000000)">
                    <circle id="Oval" stroke="#000000" stroke-width="2" fill="#FEEFA4" cx="13" cy="13" r="13"></circle>
                    <circle id="Oval" fill="#000000" cx="8.23333333" cy="8.23333333" r="1.3"></circle>
                    <circle id="Oval" fill="#000000" cx="17.7666667" cy="8.23333333" r="1.3"></circle>
                    <g id="Group" transform="translate(6.066667, 13.866667)" stroke="#000000" stroke-linecap="round" stroke-width="2">
                        <path d="M0.301449275,0.379166667 L6.93333333,5.6875" id="Line"></path>
                        <path d="M6.93333333,5.6875 L13.5652174,0.379166667" id="Line-2"></path>
                    </g>
                </g>
            </g>
        </g>
    </g>
</svg>